<svg height="100" version="1.1" width="100" xmlns="http://www.w3.org/2000/svg" style="overflow: hidden; position: relative; left: -0.5px;"><desc style="-webkit-tap-highlight-color: rgba(0, 0, 0, 0);"></desc><defs style="-webkit-tap-highlight-color: rgba(0, 0, 0, 0);"></defs><path fill="#000000" stroke="#000000" d="M93,58V22H7V78H10V79H97V58H93ZM38,77H18V60H25V56H18V41.4C18,40.1,19.1,39,20.4,39H35.7C37,39,38.1,40.1,38.1,41.4V77ZM16,59V57H24V59H16ZM50,77H39V41.4C39,39.5,37.5,38,35.6,38H20.4C18.5,38,17,39.5,17,41.4V56H15V60H17V77H8V30H50V77ZM8,29V23H92V29H8ZM66,77H51V30H70V58H66V77ZM81,78H67V74H81V78ZM81,73H67V69H81V73ZM81,68H67V64H81V68ZM81,63H67V59H81V63ZM71,58V30H92V58H71ZM96,78H82V74H96V78ZM96,73H82V69H96V73ZM96,68H82V64H96V68ZM96,63H82V59H96V63Z" stroke-width="0" stroke-opacity="1" transform="matrix(1,0,0,1,0,0)" style="-webkit-tap-highlight-color: rgba(0, 0, 0, 0); stroke-opacity: 1;"></path><path fill="#d0e0f2" stroke="#000000" d="M67,59H81V63H67ZM82,59H96V63H82ZM67,64H81V68H67ZM82,64H96V68H82ZM67,69H81V73H67ZM82,69H96V73H82ZM67,74H81V78H67ZM82,74H96V78H82Z" stroke-width="0" stroke-opacity="1" transform="matrix(1,0,0,1,0,0)" style="-webkit-tap-highlight-color: rgba(0, 0, 0, 0); stroke-opacity: 1;"></path></svg>
